<?xml version="1.0" encoding="utf-8"?>
<!-- Generator: Adobe Illustrator 20.0.0, SVG Export Plug-In . SVG Version: 6.00 Build 0)  -->
<svg version="1.1" xmlns="http://www.w3.org/2000/svg" xmlns:xlink="http://www.w3.org/1999/xlink" x="0px" y="0px"
	 viewBox="0 0 500 500" style="enable-background:new 0 0 500 500;" xml:space="preserve">
<style type="text/css">
	.st0{display:none;}
	.st1{display:inline;fill:#F91515;stroke:#000000;stroke-miterlimit:10;}
	.st2{fill:none;stroke:#E5EBED;stroke-linecap:round;stroke-linejoin:round;stroke-miterlimit:10;}
	.st3{fill:#F4F8F9;}
	.st4{fill:#ADC1C8;}
	.st5{fill:none;}
	.st6{font-family:'MyriadPro-Regular';}
	.st7{font-size:6px;}
	.st8{fill:none;stroke:#FFFFFF;stroke-width:2;stroke-linecap:round;stroke-linejoin:round;stroke-miterlimit:10;}
	.st9{fill:none;stroke:#D6277C;stroke-linecap:round;stroke-linejoin:round;stroke-miterlimit:10;}
	.st10{fill:#611A44;}
	.st11{fill:#FFFFFF;}
	.st12{fill:none;stroke:#ADC1C8;stroke-width:2;stroke-linecap:round;stroke-linejoin:round;stroke-miterlimit:10;}
	.st13{fill:#00A19B;}
	.st14{fill:#FFFFFF;stroke:#BEBEBE;stroke-linecap:round;stroke-linejoin:round;stroke-miterlimit:10;}
	.st15{fill:#00CAC5;}
	.st16{fill:#FFFFFF;stroke:#E6E6E6;stroke-linecap:round;stroke-linejoin:round;stroke-miterlimit:10;}
	.st17{fill:#BBBBBB;}
	.st18{fill:none;stroke:#ADC1C8;stroke-width:2;stroke-linecap:square;stroke-miterlimit:10;}
	.st19{fill:none;stroke:#ADC1C8;stroke-width:2;stroke-linecap:square;stroke-linejoin:round;stroke-miterlimit:10;}
	.st20{fill:#EEEEEE;}
	.st21{fill:#7A7A7A;}
	.st22{fill:none;stroke:#9C9C9C;stroke-width:2;stroke-linecap:square;stroke-miterlimit:10;}
	.st23{fill:#9C9C9C;}
	.st24{fill:none;stroke:#FFFFFF;stroke-width:2;stroke-linecap:square;stroke-miterlimit:10;}
	.st25{fill:#FCFAFA;}
	.st26{fill:#A5A5A5;}
	.st27{fill:none;stroke:#FFFFFF;stroke-width:2;stroke-linecap:square;stroke-linejoin:round;stroke-miterlimit:10;}
</style>
<g id="Layer_2" class="st0">
	<rect x="-85.1" y="-44.3" class="st1" width="599" height="582.3"/>
</g>
<g id="Layer_1">
	<polygon class="st2" points="372,9.1 390.5,19.8 390.5,41.3 372,52.1 353.5,41.3 353.5,19.8 	"/>
	<polygon class="st3" points="372,10.6 389,20.6 389,40.6 372,50.6 355,40.6 355,20.6 	"/>
	<path class="st4" d="M357,28.6h-0.1c-0.3-0.1-0.5-0.3-0.4-0.6l1.3-4.9c0.1-0.2,0.3-0.4,0.5-0.4h1.4c0.3,0,0.5,0.2,0.5,0.4l1.2,4.5
		h0.8v-4.3c0-0.3,0.2-0.5,0.5-0.5h2.7c0.3,0,0.5,0.2,0.5,0.5v2.2l1.2,2.1h0.5v-4.3c0-0.3,0.2-0.5,0.5-0.5h2.6c0.3,0,0.5,0.2,0.5,0.5
		v2.2l1.2,2.1h3.6v-2.9c0-0.3,0.2-0.5,0.5-0.5s0.5,0.2,0.5,0.5V28c0,0.3-0.2,0.5-0.5,0.5H372c-0.2,0-0.4-0.1-0.5-0.3l-1.4-2.5
		c0-0.1-0.1-0.1-0.1-0.2v-1.9h-1.6V28c0,0.3-0.2,0.5-0.5,0.5h-1.3c-0.2,0-0.4-0.1-0.5-0.3l-1.4-2.5c-0.1-0.1-0.1-0.1-0.1-0.2v-1.9
		H363V28c0,0.3-0.2,0.5-0.5,0.5H361c-0.3,0-0.5-0.2-0.5-0.4l-1.2-4.4h-0.6l-1.2,4.5C357.5,28.4,357.3,28.6,357,28.6z"/>
	<path class="st4" d="M385,28.5h-1.2c-0.3,0-0.5-0.2-0.5-0.4l-0.9-4.4h-0.1l-0.9,4.4c0,0.2-0.3,0.4-0.5,0.4h-1.2
		c-0.3,0-0.5-0.2-0.5-0.4l-0.9-4.4h-4.1v2.9c0,0.3-0.2,0.5-0.5,0.5s-0.5-0.2-0.5-0.5v-3.4c0-0.3,0.2-0.5,0.5-0.5h5
		c0.3,0,0.5,0.2,0.5,0.4l0.9,4.4h0.3l0.9-4.4c0-0.2,0.3-0.4,0.5-0.4h1c0.3,0,0.5,0.2,0.5,0.4l0.9,4.4h0.3l1-4.5
		c0-0.3,0.3-0.4,0.6-0.4c0.3,0,0.5,0.3,0.4,0.6l-1,4.9C385.5,28.3,385.2,28.5,385,28.5z"/>
	<rect x="358.5" y="30.1" class="st5" width="31" height="14.4"/>
	<text transform="matrix(1 0 0 1 358.5 35.7971)" class="st4 st6 st7">CERTIFIED</text>
	<polygon class="st8" points="17.5,57.9 21.4,66.1 30,67.5 23.8,73.9 25.2,82.9 17.5,78.6 9.8,82.9 11.3,73.9 5,67.5 13.6,66.1 	"/>
	<polygon class="st9" points="372,59.1 390.5,69.8 390.5,91.3 372,102.1 353.5,91.3 353.5,69.8 	"/>
	<polygon class="st10" points="372,60.6 389,70.6 389,90.6 372,100.6 355,90.6 355,70.6 	"/>
	<path class="st11" d="M357,78.6h-0.1c-0.3-0.1-0.5-0.3-0.4-0.6l1.3-4.9c0.1-0.2,0.3-0.4,0.5-0.4h1.4c0.3,0,0.5,0.1,0.5,0.4l1.2,4.5
		h0.8v-4.3c0-0.3,0.2-0.5,0.5-0.5h2.7c0.3,0,0.5,0.2,0.5,0.5v2.2l1.2,2.1h0.5v-4.3c0-0.3,0.2-0.5,0.5-0.5h2.6c0.3,0,0.5,0.2,0.5,0.5
		v2.2l1.2,2.1h3.6v-2.9c0-0.3,0.2-0.5,0.5-0.5s0.5,0.2,0.5,0.5V78c0,0.3-0.2,0.5-0.5,0.5H372c-0.2,0-0.4-0.1-0.5-0.3l-1.4-2.5
		c0-0.1-0.1-0.2-0.1-0.2v-1.9h-1.6V78c0,0.3-0.2,0.5-0.5,0.5h-1.3c-0.2,0-0.4-0.1-0.5-0.3l-1.4-2.5c-0.1-0.1-0.1-0.2-0.1-0.2v-1.9
		H363V78c0,0.3-0.2,0.5-0.5,0.5H361c-0.3,0-0.5-0.2-0.5-0.4l-1.2-4.4h-0.6l-1.2,4.5C357.5,78.4,357.3,78.6,357,78.6z"/>
	<path class="st11" d="M385,78.5h-1.2c-0.3,0-0.5-0.2-0.5-0.4l-0.9-4.4h-0.1l-0.9,4.4c0,0.2-0.3,0.4-0.5,0.4h-1.2
		c-0.3,0-0.5-0.2-0.5-0.4l-0.9-4.4h-4.1v2.9c0,0.3-0.2,0.5-0.5,0.5s-0.5-0.2-0.5-0.5v-3.4c0-0.3,0.2-0.5,0.5-0.5h5
		c0.3,0,0.5,0.2,0.5,0.4l0.9,4.4h0.3l0.9-4.4c0-0.2,0.3-0.4,0.5-0.4h1c0.3,0,0.5,0.2,0.5,0.4l0.9,4.4h0.3l1-4.5
		c0-0.3,0.3-0.4,0.6-0.4c0.3,0,0.5,0.3,0.4,0.6l-1,4.9C385.5,78.3,385.2,78.5,385,78.5z"/>
	<rect x="358.5" y="80.1" class="st5" width="31" height="14.4"/>
	<text transform="matrix(1 0 0 1 358.5 85.7971)" class="st11 st6 st7">CERTIFIED</text>
	<path class="st8" d="M95.6,75.7L95.6,75.7L95.6,75.7L95.6,75.7z M95.6,75.7L95.6,75.7L95.6,75.7L95.6,75.7z M95.6,75.7L95.6,75.7
		c0.1,0,0.2-0.1,0.2-0.1c3.9-2.2,5.7-4.1,7.8-6.8c2.5-3.2,1.8-6.1,1.8-6.1s-0.9-3.5-4.4-4s-5.3,3.2-5.3,3.2h-0.4
		c0,0-1.8-3.7-5.3-3.2s-4.4,4-4.4,4s-0.7,2.9,1.8,6.1c2.2,2.7,4,4.6,7.8,6.8C95.4,75.6,95.5,75.7,95.6,75.7L95.6,75.7z"/>
	<path class="st8" d="M115.1,70.1c0.5-0.4,2.7-3.7,8,0.1c5,3.5,6.9-0.2,6.9-0.2v-8.8c0,0-2,3.8-6.9,0.2c-4.3-3.1-7.5-0.5-8-0.1"/>
	<line class="st8" x1="115" y1="61.3" x2="115" y2="80.1"/>
	<polygon class="st12" points="17.5,8.2 21.4,16.4 30,17.7 23.8,24.1 25.2,33.2 17.5,28.9 9.8,33.2 11.3,24.1 5,17.7 13.6,16.4 	"/>
	<path class="st12" d="M95.6,25.7L95.6,25.7L95.6,25.7L95.6,25.7z M95.6,25.7L95.6,25.7L95.6,25.7L95.6,25.7z M95.6,25.7L95.6,25.7
		c0.1,0,0.2,0,0.2-0.1c3.9-2.2,5.7-4.1,7.8-6.8c2.5-3.2,1.8-6.1,1.8-6.1s-0.9-3.5-4.4-4s-5.3,3.2-5.3,3.2h-0.4c0,0-1.8-3.7-5.3-3.2
		s-4.4,4-4.4,4s-0.7,2.9,1.8,6.1c2.2,2.7,4,4.6,7.8,6.8C95.4,25.6,95.5,25.7,95.6,25.7L95.6,25.7z"/>
	<path class="st12" d="M115.1,18.9c0.5-0.4,2.7-3.7,8,0.1c5,3.5,6.9-0.2,6.9-0.2V9.9c0,0-2,3.8-6.9,0.2c-4.3-3.1-7.5-0.5-8-0.1"/>
	<line class="st12" x1="115" y1="10.1" x2="115" y2="28.9"/>
	<polygon class="st11" points="138.5,30 163.5,42.5 188.5,30 182.5,27 163.5,36.5 144.5,27 	"/>
	<polygon class="st11" points="138.5,39 163.5,51.5 188.5,39 182.5,36 163.5,45.5 144.5,36 	"/>
	<polygon class="st11" points="138.5,21 163.5,8.5 188.5,21 163.5,33.5 	"/>
	<g>
		<polygon class="st13" points="193.5,30 218.5,42.5 243.5,30 237.5,27 218.5,36.5 199.5,27 		"/>
		<polygon class="st13" points="193.5,39 218.5,51.5 243.5,39 237.5,36 218.5,45.5 199.5,36 		"/>
		<polygon class="st13" points="193.5,21 218.5,8.5 243.5,21 218.5,33.5 		"/>
	</g>
	<polygon class="st14" points="248.5,18.5 270.5,29.5 270.5,53.5 248.5,42.5 	"/>
	<polygon class="st14" points="248.5,18.5 270.5,29.5 290.5,18.5 269.5,8.5 	"/>
	<polygon class="st14" points="290.5,18.5 270.5,29.5 270.5,53.5 290.5,42.5 	"/>
	<rect x="12.5" y="108.5" class="st15" width="4" height="10"/>
	<path class="st15" d="M3.5,122c0,6.4,5.1,11.5,11.5,11.5s11.5-5.1,11.5-11.5c0-4.8-2.9-8.8-7-10.6v2.8c2.7,1.6,4.5,4.5,4.5,7.8
		c0,5-4,9-9,9s-9-4-9-9c0-2.9,1.4-5.5,3.5-7.1v-3C5.9,113.8,3.5,117.6,3.5,122z"/>
	<path class="st13" d="M57.5,133.1l-6-2.6v-0.1c0-0.5,0-0.9,0-1.4v-0.1c1.8-1.1,3-3.5,3-6.4c0-3.9-2.2-7-5-7s-5,3.1-5,7
		c0,2.9,1.2,5.3,3,6.4v0.1c0,0.5,0,1,0,1.4v0.1l-6.7,2.9c-2.6-2.3-4.3-5.6-4.3-9.4c0-6.8,5.6-12.4,12.4-12.4s12.4,5.6,12.4,12.4
		C61.4,127.6,59.9,130.8,57.5,133.1z M33.5,124c0,8.6,6.9,15.5,15.5,15.5s15.5-6.9,15.5-15.5s-6.9-15.5-15.5-15.5
		S33.5,115.4,33.5,124z"/>
	<polygon class="st16" points="295.5,18.5 317.5,29.5 317.5,53.5 295.5,42.5 	"/>
	<polygon class="st16" points="295.5,18.5 317.5,29.5 337.5,18.5 316.5,8.5 	"/>
	<polygon class="st16" points="337.5,18.5 317.5,29.5 317.5,53.5 337.5,42.5 	"/>
	<path class="st17" d="M81.5,108.5v2.8c-0.6,0.2-1.2,0.4-1.7,0.7l-2-2l-2.8,2.8l2,2c-0.3,0.5-0.5,1.1-0.7,1.7h-2.8v4h2.8
		c0.2,0.6,0.4,1.2,0.7,1.7l-2,2l2.8,2.8l2-2c0.5,0.3,1.1,0.5,1.7,0.7v2.8h4v-2.8c0.6-0.2,1.2-0.4,1.7-0.7l2,2l2.8-2.8l-2-2
		c0.3-0.5,0.5-1.1,0.7-1.7h2.8v-4h-2.8c-0.2-0.6-0.4-1.2-0.7-1.7l2-2l-2.8-2.8l-2,2c-0.5-0.3-1.1-0.5-1.7-0.7v-2.8H81.5z
		 M79.5,118.5c0-2.2,1.8-4,4-4s4,1.8,4,4s-1.8,4-4,4S79.5,120.7,79.5,118.5z"/>
	<polygon class="st18" points="103.5,112.5 103.5,132.5 119.5,132.5 119.5,116.5 115.5,112.5 	"/>
	<polygon class="st4" points="114.5,111.5 120.5,117.5 114.5,117.5 	"/>
	<polyline class="st18" points="119.7,128.7 124.5,128.5 124.5,113.5 120.5,109.5 110.5,109.5 110.5,112.5 	"/>
	<polygon class="st4" points="119.5,108.5 125.5,114.5 119.5,114.5 	"/>
	<rect x="135.5" y="114.5" class="st18" width="13" height="14"/>
	<rect x="133.5" y="111.5" class="st18" width="17" height="3"/>
	<rect x="137.5" y="108.5" class="st12" width="9" height="3"/>
	<line class="st19" x1="140" y1="116" x2="140" y2="123"/>
	<line class="st19" x1="144" y1="116" x2="144" y2="123"/>
	<polygon class="st18" points="159.5,121.5 172.5,108.5 177.5,113.5 164.5,126.5 158.5,127.5 	"/>
	<line class="st18" x1="168" y1="113" x2="173" y2="118"/>
	<polygon class="st17" points="208.5,158 226.4,133.6 208.5,109.3 210,108.5 228.5,133.6 210.2,158.5 	"/>
	<polygon class="st17" points="203.5,158 185.6,133.6 203.5,109.3 202,108.5 183.5,133.6 201.8,158.5 	"/>
	<polygon class="st20" points="257.1,117.8 255.1,119.8 247.8,112.5 240.5,119.8 238.5,117.8 247.8,108.5 	"/>
	<polygon class="st21" points="332.1,117.8 330.1,119.8 322.8,112.5 315.5,119.8 313.5,117.8 322.8,108.5 	"/>
	<polygon class="st20" points="282.1,110.5 280.1,108.5 272.8,115.8 265.5,108.5 263.5,110.5 272.8,119.8 	"/>
	<polygon class="st21" points="307.1,110.5 305.1,108.5 297.8,115.8 290.5,108.5 288.5,110.5 297.8,119.8 	"/>
	<polyline class="st8" points="343.5,118.5 348.5,113.5 350.5,116.5 355.5,111.5 	"/>
	<polygon class="st8" points="352.5,110.5 356.5,110.5 356.5,114.5 	"/>
	<polyline class="st8" points="339.5,109.5 339.5,123.5 358.5,123.5 	"/>
	<path class="st11" d="M371.5,108.5v2.8c-0.6,0.2-1.2,0.4-1.7,0.7l-2-2l-2.8,2.8l2,2c-0.3,0.5-0.5,1.1-0.7,1.7h-2.8v4h2.8
		c0.2,0.6,0.4,1.2,0.7,1.7l-2,2l2.8,2.8l2-2c0.5,0.3,1.1,0.5,1.7,0.7v2.8h4v-2.8c0.6-0.2,1.2-0.4,1.7-0.7l2,2l2.8-2.8l-2-2
		c0.3-0.5,0.5-1.1,0.7-1.7h2.8v-4h-2.8c-0.2-0.6-0.4-1.2-0.7-1.7l2-2l-2.8-2.8l-2,2c-0.5-0.3-1.1-0.5-1.7-0.7v-2.8H371.5z
		 M369.5,118.5c0-2.2,1.8-4,4-4s4,1.8,4,4s-1.8,4-4,4S369.5,120.7,369.5,118.5z"/>
	<path class="st11" d="M387.5,119.4v2.1c-0.4,0.1-0.9,0.3-1.3,0.5l-1.5-1.5l-2.1,2.1l1.5,1.5c-0.2,0.4-0.4,0.8-0.5,1.3h-2.1v3h2.1
		c0.1,0.4,0.3,0.9,0.5,1.3l-1.5,1.5l2.1,2.1l1.5-1.5c0.4,0.2,0.8,0.4,1.3,0.5v2.1h3v-2.1c0.5-0.1,0.9-0.3,1.3-0.5l1.5,1.5l2.1-2.1
		l-1.5-1.5c0.2-0.4,0.4-0.8,0.5-1.3h2.1v-3h-2.1c-0.1-0.4-0.3-0.9-0.5-1.3l1.5-1.5l-2.1-2.1l-1.5,1.5c-0.4-0.2-0.8-0.4-1.3-0.5v-2.1
		C390.5,119.4,387.5,119.4,387.5,119.4z M386,126.9c0-1.7,1.3-3,3-3s3,1.3,3,3c0,1.7-1.3,3-3,3S386,128.5,386,126.9z"/>
	<g>
		<polygon class="st22" points="3.5,164.5 3.5,197.5 29.5,197.5 29.5,168.5 25.5,164.5 		"/>
		<polygon class="st23" points="24.5,163.5 30.5,169.5 24.5,169.5 		"/>
	</g>
	<polyline class="st22" points="8.5,169.5 10.5,169.5 10.5,175.5 	"/>
	<polyline class="st22" points="21.5,174.5 23.5,174.5 23.5,180.5 	"/>
	<polyline class="st22" points="15.5,180.5 17.5,180.5 17.5,186.5 	"/>
	<polyline class="st22" points="21.5,185.5 23.5,185.5 23.5,191.5 	"/>
	<rect x="8.5" y="180.5" class="st22" width="3.8" height="6"/>
	<g>
		<polygon class="st23" points="44.7,167.5 44.7,189.8 41,189.8 47.2,196.8 53,189.8 48.7,189.8 48.7,171.5 66.7,171.5 66.7,175.5 
			73.7,169.3 66.7,163.5 66.7,167.5 		"/>
		<rect x="56.7" y="190.5" class="st23" width="3" height="3"/>
		<rect x="61.7" y="190.5" class="st23" width="3" height="3"/>
		<rect x="66.7" y="190.5" class="st23" width="3" height="3"/>
		<rect x="66.7" y="185.5" class="st23" width="3" height="3"/>
		<rect x="66.7" y="180.5" class="st23" width="3" height="3"/>
	</g>
	<rect x="14.5" y="169.5" class="st22" width="3.8" height="6"/>
	<path class="st23" d="M96.3,167.5c0.3-2.2,2.3-4,4.5-4s3.8,1.8,3.5,4s-2.3,4-4.5,4S96,169.7,96.3,167.5z"/>
	<path class="st23" d="M90.5,184.1c-2.1,3.9-4.5,8.4-4.5,8.4c-0.1,2.2,0.3,7.8,9.8,2c1.3-0.5,6-4,6-4s0.4-1.6-1-1
		c-2.7,1.5-4,3.3-5,3s-1-1-1-1l2.5-5c2.1-3.9,4.5-8.4,4.5-8.4c0.1-2.2-0.3-7.8-9.8-2c-1.3,0.5-6,4-6,4s-0.4,1.6,1,1
		c2.7-1.5,4-3.3,5-3s1,1,1,1L90.5,184.1z"/>
	<g>
		<polygon class="st24" points="116,164.5 116,197.5 142,197.5 142,168.5 138,164.5 		"/>
		<polygon class="st11" points="137,163.5 143,169.5 137,169.5 		"/>
	</g>
	<polyline class="st24" points="121,174.5 123,174.5 123,180.5 	"/>
	<polyline class="st24" points="134,174.5 136,174.5 136,180.5 	"/>
	<polyline class="st24" points="128,185.5 130,185.5 130,191.5 	"/>
	<polyline class="st24" points="134,185.5 136,185.5 136,191.5 	"/>
	<rect x="121" y="185.5" class="st24" width="3.8" height="6"/>
	<g>
		<polygon class="st11" points="157.1,167.5 157.1,189.8 153.5,189.8 159.7,196.8 165.5,189.8 161.1,189.8 161.1,171.5 179.1,171.5 
			179.1,175.5 186.1,169.3 179.1,163.5 179.1,167.5 		"/>
		<rect x="169.1" y="190.5" class="st11" width="3" height="3"/>
		<rect x="174.1" y="190.5" class="st11" width="3" height="3"/>
		<rect x="179.1" y="190.5" class="st11" width="3" height="3"/>
		<rect x="179.1" y="185.5" class="st11" width="3" height="3"/>
		<rect x="179.1" y="180.5" class="st11" width="3" height="3"/>
	</g>
	<rect x="127" y="174.5" class="st24" width="3.8" height="6"/>
	<path class="st25" d="M208.8,167.5c0.3-2.2,2.3-4,4.5-4s3.8,1.8,3.5,4s-2.3,4-4.5,4C210,171.5,208.5,169.7,208.8,167.5z"/>
	<path class="st11" d="M203,184.1c-2.1,3.9-4.5,8.4-4.5,8.4c-0.1,2.2,0.3,7.8,9.8,2c1.3-0.5,6-4,6-4s0.4-1.6-1-1c-2.7,1.5-4,3.3-5,3
		s-1-1-1-1l2.5-5c2.1-3.9,4.5-8.4,4.5-8.4c0.1-2.2-0.3-7.8-9.8-2c-1.3,0.5-6,4-6,4s-0.4,1.6,1,1c2.7-1.5,4-3.3,5-3s1,1,1,1
		L203,184.1z"/>
	<g>
		<path class="st26" d="M226,172.5c0,5,4,9,9,9s9-4,9-9s-4-9-9-9S226,167.5,226,172.5z M227.5,172.5c0-4.1,3.4-7.5,7.5-7.5
			s7.5,3.4,7.5,7.5s-3.4,7.5-7.5,7.5S227.5,176.6,227.5,172.5z"/>
		<polygon class="st26" points="242.2,183.5 247.8,189.2 250.7,186.3 245,180.7 244.1,180.1 241.5,178.6 240.1,180 241.6,182.6 		
			"/>
		<path class="st26" d="M229,173c0,3,2.5,5.5,5.5,5.5c0.6,0,1.2-0.1,1.7-0.3c-0.8-0.2-1.6-0.5-2.3-0.9c-1.9-0.6-3.3-2.1-3.8-4
			c-0.3-0.7-0.6-1.4-0.8-2.1C229.1,171.7,229,172.3,229,173z"/>
	</g>
	<polygon class="st11" points="138.5,63.5 150.1,69.3 161.8,63.5 159,62.1 150.1,66.5 141.3,62.1 	"/>
	<polygon class="st11" points="138.5,67.7 150.1,73.5 161.8,67.7 159,66.3 150.1,70.7 141.3,66.3 	"/>
	<polygon class="st11" points="138.5,59.3 150.1,53.5 161.8,59.3 150.1,65.1 	"/>
	<g>
		<polygon class="st13" points="163.5,63.5 175.1,69.3 186.8,63.5 184,62.1 175.1,66.5 166.3,62.1 		"/>
		<polygon class="st13" points="163.5,67.7 175.1,73.5 186.8,67.7 184,66.3 175.1,70.7 166.3,66.3 		"/>
		<polygon class="st13" points="163.5,59.3 175.1,53.5 186.8,59.3 175.1,65.1 		"/>
	</g>
	<polygon class="st14" points="193.5,57.9 203.3,62.8 203.3,73.5 193.5,68.6 	"/>
	<polygon class="st14" points="193.5,57.9 203.3,62.8 212.2,57.9 202.8,53.5 	"/>
	<polygon class="st14" points="212.2,57.9 203.3,62.8 203.3,73.5 212.2,68.6 	"/>
	<polygon class="st16" points="218.5,57.9 228.3,62.8 228.3,73.5 218.5,68.6 	"/>
	<polygon class="st16" points="218.5,57.9 228.3,62.8 237.2,57.9 227.8,53.5 	"/>
	<polygon class="st16" points="237.2,57.9 228.3,62.8 228.3,73.5 237.2,68.6 	"/>
	<polygon class="st18" points="48.5,11 48.5,31 64.5,31 64.5,15 60.5,11 	"/>
	<polygon class="st4" points="59.5,10 65.5,16 59.5,16 	"/>
	<polyline class="st18" points="64.7,27.2 69.5,27 69.5,12 65.5,8 55.5,8 55.5,11 	"/>
	<polygon class="st4" points="64.5,7 70.5,13 64.5,13 	"/>
	<polygon class="st24" points="46.3,60.5 46.3,80.5 62.3,80.5 62.3,64.5 58.3,60.5 	"/>
	<polygon class="st11" points="57.3,59.5 63.3,65.5 57.3,65.5 	"/>
	<polyline class="st24" points="62.5,76.6 67.3,76.5 67.3,61.5 63.3,57.5 53.3,57.5 53.3,60.5 	"/>
	<polygon class="st11" points="62.3,56.5 68.3,62.5 62.3,62.5 	"/>
	<g>
		<rect x="406.5" y="14" class="st18" width="13" height="14"/>
		<rect x="404.5" y="11" class="st18" width="17" height="3"/>
		<rect x="408.5" y="8" class="st12" width="9" height="3"/>
		<line class="st19" x1="411" y1="15.5" x2="411" y2="22.5"/>
		<line class="st19" x1="415" y1="15.5" x2="415" y2="22.5"/>
	</g>
	<g>
		<rect x="406.5" y="63.5" class="st24" width="13" height="14"/>
		<rect x="404.5" y="60.5" class="st24" width="17" height="3"/>
		<rect x="408.5" y="57.5" class="st8" width="9" height="3"/>
		<line class="st27" x1="411" y1="65" x2="411" y2="72"/>
		<line class="st27" x1="415" y1="65" x2="415" y2="72"/>
	</g>
	<path class="st11" d="M405.4,119.2c1.6,1.7,4,2.2,6.1,1.7l9.9,9.9l0,0c0.1,0.1,0.1,0.1,0.2,0.2c0.9,0.9,2.7,0.7,3.9-0.5
		s1.5-3,0.5-3.9c-0.1-0.1-0.1-0.1-0.2-0.2l0,0l-9.9-9.9c0.5-2.1,0-4.4-1.7-6.1c-1.6-1.6-4-2.2-6.1-1.6c-0.3,0.1-0.6,0.2-0.8,0.3
		l3.5,3.5l0,0l0.1,0.1c0.7,0.7,0.5,2-0.4,2.9s-2.2,1.1-2.9,0.4l-0.1-0.1l0,0l-3.5-3.5c-0.1,0.3-0.2,0.6-0.3,0.8
		C403.2,115.2,403.7,117.5,405.4,119.2z M421.7,128.9c-0.6-0.6-0.6-1.6,0-2.2s1.6-0.6,2.2,0s0.6,1.6,0,2.2S422.3,129.5,421.7,128.9z
		"/>
	<path class="st8" d="M315.1,226.3c0.5-0.4,2.7-3.7,8,0.1c5,3.5,6.9-0.2,6.9-0.2v-8.8c0,0-2,3.8-6.9,0.2c-4.3-3.1-7.5-0.5-8-0.1"/>
	<line class="st8" x1="315" y1="217.5" x2="315" y2="236.3"/>
	<path class="st12" d="M315.1,175.1c0.5-0.4,2.7-3.7,8,0.1c5,3.5,6.9-0.2,6.9-0.2v-8.9c0,0-2,3.8-6.9,0.2c-4.3-3.1-7.5-0.5-8-0.1"/>
	<line class="st12" x1="315" y1="166.3" x2="315" y2="185.1"/>
	<path class="st8" d="M281.8,231.5L281.8,231.5L281.8,231.5L281.8,231.5z M281.8,231.5L281.8,231.5L281.8,231.5L281.8,231.5z
		 M281.8,231.5L281.8,231.5c0.1,0,0.2-0.1,0.2-0.1c3.9-2.2,5.7-4.1,7.8-6.8c2.5-3.2,1.8-6.1,1.8-6.1s-0.9-3.5-4.4-4
		s-5.3,3.2-5.3,3.2h-0.4c0,0-1.8-3.7-5.3-3.2s-4.4,4-4.4,4s-0.7,2.9,1.8,6.1c2.2,2.7,4,4.6,7.8,6.8
		C281.6,231.4,281.7,231.5,281.8,231.5L281.8,231.5z"/>
	<path class="st12" d="M281.8,181.5L281.8,181.5L281.8,181.5L281.8,181.5z M281.8,181.5L281.8,181.5L281.8,181.5L281.8,181.5z
		 M281.8,181.5L281.8,181.5c0.1,0,0.2,0,0.2-0.1c3.9-2.2,5.7-4.1,7.8-6.8c2.5-3.2,1.8-6.1,1.8-6.1s-0.9-3.5-4.4-4s-5.3,3.2-5.3,3.2
		h-0.4c0,0-1.8-3.7-5.3-3.2s-4.4,4-4.4,4s-0.7,2.9,1.8,6.1c2.2,2.7,4,4.6,7.8,6.8C281.6,181.4,281.7,181.5,281.8,181.5L281.8,181.5z
		"/>
	<polyline class="st8" points="356.1,173.6 361.1,168.6 363.1,171.6 368.1,166.6 	"/>
	<polygon class="st8" points="365.1,165.6 369.1,165.6 369.1,169.6 	"/>
	<polyline class="st8" points="352.1,164.6 352.1,178.6 371.1,178.6 	"/>
	<path class="st11" d="M404.1,163.6v2.8c-0.6,0.2-1.2,0.4-1.7,0.7l-2-2l-2.8,2.8l2,2c-0.3,0.5-0.5,1.1-0.7,1.7h-2.8v4h2.8
		c0.2,0.6,0.4,1.2,0.7,1.7l-2,2l2.8,2.8l2-2c0.5,0.3,1.1,0.5,1.7,0.7v2.8h4v-2.8c0.6-0.2,1.2-0.4,1.7-0.7l2,2l2.8-2.8l-2-2
		c0.3-0.5,0.5-1.1,0.7-1.7h2.8v-4h-2.8c-0.2-0.6-0.4-1.2-0.7-1.7l2-2l-2.8-2.8l-2,2c-0.5-0.3-1.1-0.5-1.7-0.7v-2.8H404.1z
		 M402.1,173.6c0-2.2,1.8-4,4-4s4,1.8,4,4s-1.8,4-4,4S402.1,175.8,402.1,173.6z"/>
	<path class="st11" d="M420.1,174.5v2.1c-0.4,0.1-0.9,0.3-1.3,0.5l-1.5-1.5l-2.1,2.1l1.5,1.5c-0.2,0.4-0.4,0.8-0.5,1.3h-2.1v3h2.1
		c0.1,0.4,0.3,0.9,0.5,1.3l-1.5,1.5l2.1,2.1l1.5-1.5c0.4,0.2,0.8,0.4,1.3,0.5v2.1h3v-2.1c0.5-0.1,0.9-0.3,1.3-0.5l1.5,1.5l2.1-2.1
		l-1.5-1.5c0.2-0.4,0.4-0.8,0.5-1.3h2.1v-3H427c-0.1-0.4-0.3-0.9-0.5-1.3l1.5-1.5l-2.1-2.1l-1.5,1.5c-0.4-0.2-0.8-0.4-1.3-0.5v-2.1
		C423.1,174.5,420.1,174.5,420.1,174.5z M418.6,182c0-1.7,1.3-3,3-3s3,1.3,3,3s-1.3,3-3,3S418.6,183.6,418.6,182z"/>
	<path class="st11" d="M446,174.1c1.6,1.7,4,2.2,6.1,1.7l9.9,9.9l0,0c0.1,0.1,0.1,0.1,0.2,0.2c0.9,0.9,2.7,0.7,3.9-0.5
		s1.5-3,0.5-3.9c-0.1-0.1-0.1-0.1-0.2-0.2l0,0l-9.9-9.9c0.5-2.1,0-4.4-1.7-6.1c-1.6-1.6-4-2.2-6.1-1.6c-0.3,0.1-0.6,0.2-0.8,0.3
		l3.5,3.5l0,0l0.1,0.1c0.7,0.7,0.5,2-0.4,2.9c-0.9,0.9-2.2,1.1-2.9,0.4l-0.1-0.1l0,0l-3.5-3.5c-0.1,0.3-0.2,0.6-0.3,0.8
		C443.8,170.1,444.3,172.4,446,174.1z M462.3,183.8c-0.6-0.6-0.6-1.6,0-2.2c0.6-0.6,1.6-0.6,2.2,0c0.6,0.6,0.6,1.6,0,2.2
		S462.9,184.4,462.3,183.8z"/>
</g>
</svg>
