<?xml version="1.0" encoding="utf-8"?>
<!-- Generator: Adobe Illustrator 20.0.0, SVG Export Plug-In . SVG Version: 6.00 Build 0)  -->
<svg version="1.1" id="Layer_1" xmlns="http://www.w3.org/2000/svg" xmlns:xlink="http://www.w3.org/1999/xlink" x="0px" y="0px"
	 viewBox="0 0 500 500" style="enable-background:new 0 0 500 500;" xml:space="preserve">
<style type="text/css">
	
		.st0{fill-rule:evenodd;clip-rule:evenodd;fill:none;stroke:#E5EBED;stroke-linecap:round;stroke-linejoin:round;stroke-miterlimit:10;}
	.st1{fill-rule:evenodd;clip-rule:evenodd;fill:#F4F8F9;}
	.st2{fill:#ADC1C8;}
	
		.st3{fill-rule:evenodd;clip-rule:evenodd;fill:none;stroke:#FFFFFF;stroke-width:2;stroke-linecap:round;stroke-linejoin:round;stroke-miterlimit:10;}
	
		.st4{fill-rule:evenodd;clip-rule:evenodd;fill:none;stroke:#D6277C;stroke-linecap:round;stroke-linejoin:round;stroke-miterlimit:10;}
	.st5{fill-rule:evenodd;clip-rule:evenodd;fill:#611A44;}
	.st6{fill:#FFFFFF;}
	
		.st7{fill-rule:evenodd;clip-rule:evenodd;fill:none;stroke:#ADC1C8;stroke-width:2;stroke-linecap:round;stroke-linejoin:round;stroke-miterlimit:10;}
</style>
<polygon class="st0" points="54,9.1 72.5,19.8 72.5,41.3 54,52.1 35.5,41.3 35.5,19.8 "/>
<polygon class="st1" points="54,10.6 71,20.6 71,40.6 54,50.6 37,40.6 37,20.6 "/>
<path class="st2" d="M39,28.6c0,0-0.1,0-0.1,0c-0.3-0.1-0.5-0.3-0.4-0.6l1.3-4.9c0.1-0.2,0.3-0.4,0.5-0.4h1.4c0.3,0,0.5,0.2,0.5,0.4
	l1.2,4.5h0.8v-4.3c0-0.3,0.2-0.5,0.5-0.5h2.6c0.3,0,0.5,0.2,0.5,0.5v2.2l1.2,2.1h0.5v-4.3c0-0.3,0.2-0.5,0.5-0.5h2.6
	c0.3,0,0.5,0.2,0.5,0.5v2.2l1.2,2.1h3.6v-2.9c0-0.3,0.2-0.5,0.5-0.5s0.5,0.2,0.5,0.5V28c0,0.3-0.2,0.5-0.5,0.5h-4.5
	c-0.2,0-0.4-0.1-0.5-0.3l-1.4-2.5c0-0.1-0.1-0.1-0.1-0.2v-1.9h-1.6V28c0,0.3-0.2,0.5-0.5,0.5h-1.3c-0.2,0-0.4-0.1-0.5-0.3L47,25.8
	c0-0.1-0.1-0.1-0.1-0.2v-1.9h-1.6V28c0,0.3-0.2,0.5-0.5,0.5H43c-0.3,0-0.5-0.2-0.5-0.4l-1.2-4.4h-0.6l-1.2,4.5
	C39.5,28.4,39.3,28.6,39,28.6z"/>
<path class="st2" d="M67,28.5h-1.2c-0.3,0-0.5-0.2-0.5-0.4l-0.9-4.4h-0.1l-0.9,4.4c0,0.2-0.3,0.4-0.5,0.4h-1.2
	c-0.3,0-0.5-0.2-0.5-0.4l-0.9-4.4h-4.1v2.9c0,0.3-0.2,0.5-0.5,0.5c-0.3,0-0.5-0.2-0.5-0.5v-3.4c0-0.3,0.2-0.5,0.5-0.5h5
	c0.3,0,0.5,0.2,0.5,0.4l0.9,4.4h0.3l0.9-4.4c0-0.2,0.3-0.4,0.5-0.4h1c0.3,0,0.5,0.2,0.5,0.4l0.9,4.4h0.3l0.9-4.5
	c0.1-0.3,0.3-0.4,0.6-0.4c0.3,0,0.5,0.3,0.4,0.6l-1,4.9C67.4,28.3,67.2,28.5,67,28.5z"/>
<g>
	<path class="st2" d="M43.8,35.7c-0.2,0.1-0.6,0.2-1.1,0.2c-1.1,0-2-0.7-2-2c0-1.3,0.9-2.1,2.1-2.1c0.5,0,0.8,0.1,1,0.2l-0.1,0.4
		c-0.2-0.1-0.5-0.2-0.8-0.2c-0.9,0-1.6,0.6-1.6,1.7c0,1,0.6,1.6,1.6,1.6c0.3,0,0.6-0.1,0.9-0.2L43.8,35.7z"/>
	<path class="st2" d="M46.5,33.9H45v1.5h1.8v0.4h-2.3v-4h2.2v0.4H45v1.3h1.6V33.9z"/>
	<path class="st2" d="M47.4,31.8c0.3-0.1,0.6-0.1,1-0.1c0.6,0,0.9,0.1,1.2,0.3c0.2,0.2,0.3,0.5,0.3,0.8c0,0.5-0.3,0.9-0.8,1v0
		c0.3,0.1,0.5,0.4,0.6,0.8c0.1,0.6,0.2,1,0.3,1.1h-0.5c-0.1-0.1-0.2-0.5-0.3-1c-0.1-0.6-0.3-0.8-0.8-0.8h-0.5v1.8h-0.5V31.8z
		 M47.9,33.6h0.5c0.6,0,0.9-0.3,0.9-0.8c0-0.5-0.4-0.7-0.9-0.8c-0.3,0-0.4,0-0.5,0V33.6z"/>
	<path class="st2" d="M51.4,32.2h-1.2v-0.4h3v0.4H52v3.6h-0.5V32.2z"/>
	<path class="st2" d="M54.2,31.8v4h-0.5v-4H54.2z"/>
	<path class="st2" d="M55.1,31.8h2.2v0.4h-1.7v1.3h1.5V34h-1.5v1.8h-0.5V31.8z"/>
	<path class="st2" d="M58.5,31.8v4H58v-4H58.5z"/>
	<path class="st2" d="M61.5,33.9H60v1.5h1.8v0.4h-2.3v-4h2.2v0.4H60v1.3h1.6V33.9z"/>
	<path class="st2" d="M62.4,31.8c0.3,0,0.7-0.1,1.1-0.1c0.7,0,1.3,0.2,1.6,0.5c0.4,0.3,0.6,0.8,0.6,1.5c0,0.7-0.2,1.2-0.6,1.6
		c-0.4,0.4-1,0.6-1.8,0.6c-0.4,0-0.7,0-0.9,0V31.8z M62.9,35.4c0.1,0,0.3,0,0.5,0c1.1,0,1.7-0.6,1.7-1.7c0-1-0.5-1.6-1.6-1.6
		c-0.3,0-0.5,0-0.6,0.1V35.4z"/>
</g>
<polygon class="st3" points="17.5,57.9 21.4,66.1 30,67.5 23.8,73.9 25.2,82.9 17.5,78.6 9.8,82.9 11.3,73.9 5,67.5 13.6,66.1 "/>
<polygon class="st4" points="54,59.1 72.5,69.8 72.5,91.3 54,102.1 35.5,91.3 35.5,69.8 "/>
<polygon class="st5" points="54,60.6 71,70.6 71,90.6 54,100.6 37,90.6 37,70.6 "/>
<path class="st6" d="M39,78.6c0,0-0.1,0-0.1,0c-0.3-0.1-0.5-0.3-0.4-0.6l1.3-4.9c0.1-0.2,0.3-0.4,0.5-0.4h1.4c0.3,0,0.5,0.1,0.5,0.4
	l1.2,4.5h0.8v-4.3c0-0.3,0.2-0.5,0.5-0.5h2.6c0.3,0,0.5,0.2,0.5,0.5v2.2l1.2,2.1h0.5v-4.3c0-0.3,0.2-0.5,0.5-0.5h2.6
	c0.3,0,0.5,0.2,0.5,0.5v2.2l1.2,2.1h3.6v-2.9c0-0.3,0.2-0.5,0.5-0.5s0.5,0.2,0.5,0.5V78c0,0.3-0.2,0.5-0.5,0.5h-4.5
	c-0.2,0-0.4-0.1-0.5-0.3l-1.4-2.5c0-0.1-0.1-0.2-0.1-0.2v-1.9h-1.6V78c0,0.3-0.2,0.5-0.5,0.5h-1.3c-0.2,0-0.4-0.1-0.5-0.3L47,75.8
	c0-0.1-0.1-0.2-0.1-0.2v-1.9h-1.6V78c0,0.3-0.2,0.5-0.5,0.5H43c-0.3,0-0.5-0.2-0.5-0.4l-1.2-4.4h-0.6l-1.2,4.5
	C39.5,78.4,39.3,78.6,39,78.6z"/>
<path class="st6" d="M67,78.5h-1.2c-0.3,0-0.5-0.2-0.5-0.4l-0.9-4.4h-0.1l-0.9,4.4c0,0.2-0.3,0.4-0.5,0.4h-1.2
	c-0.3,0-0.5-0.2-0.5-0.4l-0.9-4.4h-4.1v2.9c0,0.3-0.2,0.5-0.5,0.5c-0.3,0-0.5-0.2-0.5-0.5v-3.4c0-0.3,0.2-0.5,0.5-0.5h5
	c0.3,0,0.5,0.2,0.5,0.4l0.9,4.4h0.3l0.9-4.4c0-0.2,0.3-0.4,0.5-0.4h1c0.3,0,0.5,0.2,0.5,0.4l0.9,4.4h0.3l0.9-4.5
	c0.1-0.3,0.3-0.4,0.6-0.4c0.3,0,0.5,0.3,0.4,0.6l-1,4.9C67.4,78.3,67.2,78.5,67,78.5z"/>
<g>
	<path class="st6" d="M43.8,85.7c-0.2,0.1-0.6,0.2-1.1,0.2c-1.1,0-2-0.7-2-2c0-1.3,0.9-2.1,2.1-2.1c0.5,0,0.8,0.1,1,0.2l-0.1,0.4
		c-0.2-0.1-0.5-0.2-0.8-0.2c-0.9,0-1.6,0.6-1.6,1.7c0,1,0.6,1.6,1.6,1.6c0.3,0,0.6-0.1,0.9-0.2L43.8,85.7z"/>
	<path class="st6" d="M46.5,83.9H45v1.5h1.8v0.4h-2.3v-4h2.2v0.4H45v1.3h1.6V83.9z"/>
	<path class="st6" d="M47.4,81.8c0.3-0.1,0.6-0.1,1-0.1c0.6,0,0.9,0.1,1.2,0.3c0.2,0.2,0.3,0.5,0.3,0.8c0,0.5-0.3,0.9-0.8,1v0
		c0.3,0.1,0.5,0.4,0.6,0.8c0.1,0.6,0.2,1,0.3,1.1h-0.5c-0.1-0.1-0.2-0.5-0.3-1c-0.1-0.6-0.3-0.8-0.8-0.8h-0.5v1.8h-0.5V81.8z
		 M47.9,83.6h0.5c0.6,0,0.9-0.3,0.9-0.8c0-0.5-0.4-0.7-0.9-0.8c-0.3,0-0.4,0-0.5,0V83.6z"/>
	<path class="st6" d="M51.4,82.2h-1.2v-0.4h3v0.4H52v3.6h-0.5V82.2z"/>
	<path class="st6" d="M54.2,81.8v4h-0.5v-4H54.2z"/>
	<path class="st6" d="M55.1,81.8h2.2v0.4h-1.7v1.3h1.5V84h-1.5v1.8h-0.5V81.8z"/>
	<path class="st6" d="M58.5,81.8v4H58v-4H58.5z"/>
	<path class="st6" d="M61.5,83.9H60v1.5h1.8v0.4h-2.3v-4h2.2v0.4H60v1.3h1.6V83.9z"/>
	<path class="st6" d="M62.4,81.8c0.3,0,0.7-0.1,1.1-0.1c0.7,0,1.3,0.2,1.6,0.5c0.4,0.3,0.6,0.8,0.6,1.5c0,0.7-0.2,1.2-0.6,1.6
		c-0.4,0.4-1,0.6-1.8,0.6c-0.4,0-0.7,0-0.9,0V81.8z M62.9,85.4c0.1,0,0.3,0,0.5,0c1.1,0,1.7-0.6,1.7-1.7c0-1-0.5-1.6-1.6-1.6
		c-0.3,0-0.5,0-0.6,0.1V85.4z"/>
</g>
<path class="st3" d="M95.6,75.7L95.6,75.7L95.6,75.7L95.6,75.7z M95.6,75.7L95.6,75.7L95.6,75.7L95.6,75.7z M95.6,75.7L95.6,75.7
	c0.1,0,0.2-0.1,0.2-0.1c3.9-2.2,5.7-4.1,7.8-6.8c2.5-3.2,1.8-6.1,1.8-6.1s-0.9-3.5-4.4-4c-3.5-0.5-5.3,3.2-5.3,3.2h-0.4
	c0,0-1.8-3.7-5.3-3.2c-3.5,0.5-4.4,4-4.4,4s-0.7,2.9,1.8,6.1c2.2,2.7,4,4.6,7.8,6.8C95.4,75.6,95.5,75.7,95.6,75.7L95.6,75.7z"/>
<path class="st3" d="M115.1,70.1c0.5-0.4,2.7-3.7,8,0.1c5,3.5,6.9-0.2,6.9-0.2v-8.8c0,0-2,3.8-6.9,0.2c-4.3-3.1-7.5-0.5-8-0.1"/>
<line class="st3" x1="115" y1="61.3" x2="115" y2="80.1"/>
<polygon class="st7" points="17.5,8.2 21.4,16.4 30,17.7 23.8,24.1 25.2,33.2 17.5,28.9 9.8,33.2 11.3,24.1 5,17.7 13.6,16.4 "/>
<path class="st7" d="M95.6,25.7L95.6,25.7L95.6,25.7L95.6,25.7z M95.6,25.7L95.6,25.7L95.6,25.7L95.6,25.7z M95.6,25.7L95.6,25.7
	c0.1,0,0.2,0,0.2-0.1c3.9-2.2,5.7-4.1,7.8-6.8c2.5-3.2,1.8-6.1,1.8-6.1s-0.9-3.5-4.4-4c-3.5-0.5-5.3,3.2-5.3,3.2h-0.4
	c0,0-1.8-3.7-5.3-3.2c-3.5,0.5-4.4,4-4.4,4s-0.7,2.9,1.8,6.1c2.2,2.7,4,4.6,7.8,6.8C95.4,25.6,95.5,25.7,95.6,25.7L95.6,25.7z"/>
<path class="st7" d="M115.1,18.9c0.5-0.4,2.7-3.7,8,0.1c5,3.5,6.9-0.2,6.9-0.2V9.9c0,0-2,3.8-6.9,0.2c-4.3-3.1-7.5-0.5-8-0.1"/>
<line class="st7" x1="115" y1="10.1" x2="115" y2="28.9"/>
</svg>
